<svg aria-hidden="true" style="position:absolute;width:0;height:0;overflow:hidden" xmlns="http://www.w3.org/2000/svg">
  <defs>
    <symbol id="icon-client1" viewBox="0 0 57 32">
      <path d="m20 4 4 3h-7v17h18v-6l4 3V4H20zm15 13L24 7h11v10zm-3 5H20V10h1v11h11v1zm-9 5-1 1v1-1l-1-1h1v1l1-1zm0 2v-1h1v1h1l-1-2-1 2zm1-2v1-1zm2 1v-1h1l-1 1h1v1-1l-1 1v-1zm0 0zm0-1zm3 1v1h-1v-2h1-1v1h1zm2 0a1 1 0 0 1-1 1v-2h1v1zm0-1h-1v1h1v-1z"/>
    </symbol>
    <symbol id="icon-client2" viewBox="0 0 57 32">
      <path d="M27 3h2V2a11 11 0 0 0-3 0 16 16 0 0 0-8 2v15a17 17 0 0 1 7-2h1v-2a18 18 0 0 0-6 1v1V5a15 15 0 0 1 6-2h1zm2 2h1a17 17 0 0 0 9-2v15a16 16 0 0 1-12 1V4a11 11 0 0 0 2 1zm8 0h-2a18 18 0 0 1-6 1v12h1a14 14 0 0 0 7-1V5zM19 24h-1a1 1 0 0 0 0 1v3h1a1 1 0 0 0 0-1h-1v-3h1v1a1 1 0 0 0 0-1zm3 0a1 1 0 0 0-1 0v4h1c1 0 0 0 0 0a1 1 0 0 0 0-1v-3zm0 3h-1v-3h1v3zm4 1v-4l-1 2-1-2v4-3h1v2l1-2v3zm3-4h-1v4-2h1l1-1a3 3 0 0 0 0-1h-1zm0 1v1h-1v-2h1v1zm3-1h-1v4-1h1v1h1l-1-4zm-1 2 1-1v1h-1zm4 0-1-2v4-3l1 3h1v-4h-1v2zm3-2v1-1h-1l1 2v2-2l1-2h-1zm-20 5v-1 1zm2-1-1 1h1v-1zm0 1zm2 0v-1 1h-1 1zm2-1v1-1zm2 0v1-1zm2 1-1-1v1h1v-1 1zm1 0h1-1 1v-1h-1v1h1-1zm4 0v-1 1-1 1zm2 0v-1h-1v1h1zm2 0v-1h-1v1h1zm0 0zm1 0h1-1 1v-1h-1v1h1-1z"/>
    </symbol>
    <symbol id="icon-client4" viewBox="0 0 57 32">
      <path d="m13 11-2 2 2 2 2-2-2-2zm17 0-2-5c-1-2-3-1-5-1l-4 1-2 5v8s13-1 13-8zM6 22l1 3 4 1 3-1 1-3v-6s-9 1-9 6zm5 1H9v-1l1-1h1l1 1c1 1 0 0 0 0v1h-1zm9 0h-1v1-3h1v1h-1 1v1zm2-1v1l-1 1v-1h-1v-1a1 1 0 0 1 1-1h1v1zm0 0h-1v1h1v-1zm2 1h-1v-2h1v1h-1l1 1c0 1 0 0 0 0l-1 1v-1h-1 2zm2-1v2h-1v-2h-1v-1h2v1zm2 1h-1 1v1h-1v-3h1v1h-1 1v1zm1 0v1h-1v-3h2v3l-1-1zm0-1h1-1zm3 1v1h-1v-3h1l1 1v1h-1zm0-1zm3 1h-1 1v1h-2v-3h2v1h-1 1v1zm2-1h-1v2-2h-1v-1h2v1zm1 1h-1 2v1h-2v-3h2v1h-2 1v1zm2 0h-1v1-3h1l1 1h-1v1l1 1h-1v-1zm-1-1h1-1zm3 1-1-1v-1h1v1h1-2 1v1h1-1v1h-1v-1h1z"/>
    </symbol>
    <symbol id="icon-client3" viewBox="0 0 57 32">
      <path d="M19 26h1l-1 1h-1v-2a1 1 0 0 1 1 0h1-2v1a1 1 0 0 0 1 0zm4 0h-1v1h-1v-2h1a1 1 0 0 1 1 1zm-1 0v-1h-1v1h1zm3 0 1-1v2-2l-1 1-1-1v2-2l1 1zm3 0v1-2h1a1 1 0 0 1 0 1h-1zm0 0h1v-1h-1v1zm4 1h-1v-1h-1v1l1-2 1 2zm-2-1h1v-1l-1 1zm3-1 1 1v-1h1v2h-1l-1-2v2-2zm4 1v1h-1v-2h1a1 1 0 0 1 0 1v-1h1l-1 1zm-12-5v1l5-4 2-5-2-2-1 6-4 4z"/>
      <path d="m24 21 5-5v-6l-3-2c1 2 2 4 1 7l-3 6zm11-6-4 5-2 1 4-2 3-3-1-1z"/>
      <path d="m34 15-2-2-1 5-5 4 2-1 4-2 2-4zM24 6l-2-1c-2 0-3 1-4 3l-2 5 2 5c1 1 3 3 5 3 2-2 4-4 4-7l-3-8zm15 8-3-6c-2-2-4-2-7-2h-4l13 11 1-3z"/>
    </symbol>
    <symbol id="icon-client6" viewBox="0 0 57 32">
      <path d="M28 15v-4h3v1h-1v-1h-1v3h1v-1h1v2h-3zm4 0v-4h2l1 1v2l-1 1h-2zm2-1v-3h-1c-1 0 0 0 0 0v3h1zm2-3h1v3l1-3h1v4h-1v-3 3h-1l-1-3v3-4zm4 0h2l1 1-1 1h-1v2h-1v-4zm1 1a1 1 0 0 0 1 0v-1h-1v1zm3-1h1l1 4h-1v-1h-1v1h-1l1-4zm1 2v-1l-1 1h1zm2-2h1l1 2v-2h1v4h-1l-1-3v3h-1v-4zm4 2-1-2h1l1 1v-1h1l-1 2v2h-1v-2zm-21 4h-1v2-2h-1 2zm2 2v-1h-1l-1 1 1-2 1 2zm-1-1h1l-1-1v1zm3 1v-1h1v1a1 1 0 0 1-1 0h-1v-2a2 2 0 0 1 1 0 1 1 0 0 1 1 0h-1a1 1 0 0 0-1 0v2h1zm3 0h1-2v-2h1v2zm2 0h-1v-2h1v2zm1-2 1 1v-1 2l-1-2v2-2zm4 0h-1v1h1-1v1h1-2v-2h2zM11 5l14 3v12l-14-4V5zm-1-1v13l16 4V7L10 4z"/>
      <path d="M19 27 3 23V10l16 4v13z"/>
      <path d="m11 4 13 4-6 5L5 9l6-5zm-1 0-7 6 16 4 7-7-16-3zm10 22 6-5-6-2v7z"/>
    </symbol>
    <symbol id="icon-client5" viewBox="0 0 57 32">
      <path d="M14 24v1h-2v-3h2v2zm-2-1h2l-1-1h-1v1zm2 2v-1c0-1 0 0 0 0h-2v1h2zm3 0v-1h-1v1h-1v-3h3v2h-1l1 1h-1zm-1-1h1v-1h-1v1zm5 1h-2l1-3h1l1 3h-1zm0-1v-1l-1 1h1zm5 1-2-2v2h-1v-3h1l2 2v-2 3zm4-1v1h-3v-3h3v1a2 2 0 0 1 0 1zm0 0v-1h-2v2h1l1-1zM22 4s9 3 9 7v8s-9-3-9-8V4zm17 14c2-2 4-2 6-2v-3c-2 1-4 2-6 5z"/>
      <path d="m38 18 7-5V5s-13 5-13 12v11l2-1v-1c0-3 2-6 4-8z"/>
      <path d="M37 22v-2a10 10 0 0 0-2 7l2-1v-4zm0 0 1 3c3-2 7-5 7-8v-1l-7 3-1 3z"/>
    </symbol>
    <symbol id="icon-benefit1" viewBox="0 0 72 32">
      <path fill="#f5f4fa" style="fill:var(--color3, #f5f4fa)" d="M1 0h70l1 1v30l-1 1H1l-1-1V1l1-1z"/>
      <path fill="#212121" style="fill:var(--color4, #212121)" d="m45 20-5-5v-3h1a1 1 0 1 0-1-1l-3 1-5-5h-1v1c-1 0-1 0 0 0v1a9 9 0 0 0 2 10v4h-4l-2 1v1h15v-1l-1-1h-4v-2a9 9 0 0 0 6-1v1h1l1-1zm-5-10a1 1 0 1 1 1 1 1 1 0 0 1-1-1zm0 2-1 2-1-1 2-1zm-1 0-1 1-1-1h2zm2 11 1 1v1H28v-1l1-1h12zm-5-1v1h-3v-1h3zm-3 0v-3l2-1 1 1v3h-3zm4-1v-2l-2-2-2 1c-3-2-3-6-1-9l10 11-5 1zm7-1L31 8l1-1 4 5 8 8z"/>
      <path fill="#2196f3" style="fill:var(--color2, #2196f3)" d="M35 18a1 1 0 0 0 0 2 1 1 0 0 0 0-2zm0 2v-1 1z"/>
    </symbol>
    <symbol id="icon-benefit2" viewBox="0 0 72 32">
      <path fill="#f5f4fa" style="fill:var(--color3, #f5f4fa)" d="M1 0h70l1 1v30l-1 1H1l-1-1V1l1-1z"/>
      <path fill="#212121" style="fill:var(--color4, #212121)" d="M45 16a9 9 0 1 0-12 8h1l2-7a1 1 0 1 0 0-2l-3-3h-1l3 3v1l-2 7a8 8 0 1 1 6 0v-1h-1l-2 2 3 1h1l-1-1c4-2 6-5 6-8zm-9-1v1-1zm1 9 1-1 1 1h-2z"/>
      <path fill="#2196f3" style="fill:var(--color2, #2196f3)" d="M36 9zm-7 6v1h1v-1h-1zm14 1v-1h-1v1h1z"/>
    </symbol>
    <symbol id="icon-benefit3" viewBox="0 0 72 32">
      <path fill="#f5f4fa" style="fill:var(--color3, #f5f4fa)" d="M1 0h70l1 1v30l-1 1H1l-1-1V1l1-1z"/>
      <path fill="#2196f3" style="fill:var(--color2, #2196f3)" d="M35 15h1v3h-1v-3zm3 2v1-1zm-5 1h1-1zm-2-1h1v1h-1v-1z"/>
      <path fill="#212121" style="fill:var(--color4, #212121)" d="M28 23h15v-3h-1v-8l2-1a1 1 0 1 0 0-1l-2 1-1-1H29l-1 1v9l-1 1v1l1 1zM44 9v1-1zm-15 2v-1h12l1 1v1l-1 1v-2H29v8h12v-6h1v7H29v-9zm2 4a1 1 0 1 0 1 1l1 1 3-3 2 2 2-2v5H30v-7h10v1l-2 2-2-1h-1l-2 2h-1l-1-1zm1 1h-1 1zm2 5h3-3zm-7 0h6l1 1h2l1-1h6v2H28l-1-1v-1z"/>
    </symbol>
    <symbol id="icon-benefit4" viewBox="0 0 72 32">
      <path fill="#f5f4fa" style="fill:var(--color3, #f5f4fa)" d="M1 0h70l1 1v30l-1 1H1l-1-1V1l1-1z"/>
      <path fill="#2196f3" style="fill:var(--color2, #2196f3)" d="M45 9h-1l-1-1-1 1h-1v1h1v2l1-1 1 1h1l-1-2h1V9zm-1 1v1h-2l1-1h-1 1V9l1 1zm-2 9h-1 1zm0 1h-1v1h1v-1zm1-1h-1v1h1v-1zm-2 0v1-1zm-1 3h-1v1h1v-1zm0 1h-1v1h1v-1zm0 0zm-1 0h-1 1zm-3-2h-1 1zm0 1h-1v1h1v-1zm1-1h-1v1h1v-1zm-2 0v1-1zm-5-11h-1v1h1v-1zm0 1h-1v1h1v-1zm1 0h-1 1zm-2 0z"/>
      <path fill="#212121" style="fill:var(--color4, #212121)" d="M41 15h-1c0-1 0 0 0 0h-1l-1 1h-1a4 4 0 0 0-2-8 4 4 0 0 0-3 6h-2l-2 1-1 1a1 1 0 0 0 1 2l1-1 1-1h1l-3 4h-1a1 1 0 0 0 0 2 1 1 0 0 0 2 0v-1l1-1 1 1-1 1-1 1v1h1c1 0 0 0 0 0l2-2 1-1 3-3h2l2-1 1-1v-1zm-13 2h-1v-1h1v1zm2-1h-1l1-1v1zm9-4-1 2-2-2V9c2 0 3 2 3 3zm-7 0a3 3 0 0 1 4-3l-1 2-1 2 1 1 1-1 2 1a3 3 0 0 1-6-2zm3 1h-1l1-1v1zm-7 8v-1l1 1h-1zm2 3-1-1 1-1 1 1-1 1zm2-3-1 2-1-1 2-1-1-1h-1c-1 0 0 0 0 0h-1l1-2 3 3h-1zm4-4-3 3-3-2 2-2h-1v-1h1a4 4 0 0 0 4 1l2 1v1l-2-1zm2 1v-1l1-1 1 1h-2zm3-2h-1v-1h1v1z"/>
      <path fill="#212121" style="fill:var(--color4, #212121)" d="m35 17-2-1-1 1v1l1 1 2-1v-1zm-2 2-1-1 1-1 1 1-1 1zm4-9 1 1-1-1zm1 2v1-1z"/>
    </symbol>
    <symbol id="icon-email" viewBox="0 0 32 32">
      <path d="M29 4H3C1 4 0 5 0 7v18c0 2 1 3 3 3h26c2 0 3-1 3-3V7c0-2-1-3-3-3zm0 2L16 18 3 6h26zm0 20H3l-1-1V8l13 12a1 1 0 0 0 2 0L30 8v17l-1 1z"/>
    </symbol>
    <symbol id="icon-facebook" viewBox="0 0 32 32">
      <path d="M21 5h3V0h-4c-4 0-7 3-7 8v4H8v6h5v14h6V18h4l1-6h-5V8c0-2 0-3 2-3z"/>
    </symbol>
    <symbol id="icon-instagram" viewBox="0 0 32 32">
      <path d="m32 9-1-3c0-2-1-3-2-3l-2-2-4-1A110 110 0 0 0 6 1L3 3C2 3 1 4 1 6L0 9a110 110 0 0 0 1 17c0 2 1 3 2 3l3 2 3 1a117 117 0 0 0 18-1c2-1 3-2 4-5l1-3V9zm-3 13v3c-1 2-2 3-4 3l-2 1a113 113 0 0 1-16-1l-2-1-1-2-1-3A113 113 0 0 1 4 7l1-2 2-1 3-1a113 113 0 0 1 16 1l1 1 2 2v15z"/>
      <path d="M16 8a8 8 0 1 0 0 16 8 8 0 0 0 0-16zm0 13a5 5 0 1 1 0-10 5 5 0 0 1 0 10zM27 7a2 2 0 1 1-4 0 2 2 0 0 1 4 0z"/>
    </symbol>
    <symbol id="icon-linkedin" viewBox="0 0 32 32">
      <path d="M32 32V20c0-5-1-10-8-10-3 0-5 2-6 4v-3h-7v21h7V21c0-2 0-5 4-5 3 0 3 3 3 6v10h7zM1 11h6v21H1V11zM4 0C2 0 0 2 0 4s2 4 4 4 4-2 4-4-2-4-4-4z"/>
    </symbol>
    <symbol id="icon-phone" viewBox="0 0 32 32">
      <path d="M23 0H9C7 0 6 1 6 3v26c0 2 1 3 3 3h14c2 0 3-1 3-3V3c0-2-1-3-3-3zM9 2h14l1 1v21H8V3l1-1zm14 28H9l-1-1v-3h16v3l-1 1z"/>
      <path d="M11 27v2H9v-2h2z"/>
    </symbol>
    <symbol id="icon-twitter" viewBox="0 0 32 32">
      <path d="m32 6-4 1c2-1 3-2 3-4l-4 2a7 7 0 0 0-11 6C10 11 5 8 2 4a7 7 0 0 0 2 9l-3-1c0 3 3 6 6 7a7 7 0 0 1-3 0c0 2 3 4 6 4a13 13 0 0 1-10 3A19 19 0 0 0 29 9l3-3z"/>
    </symbol>
  </defs>
</svg>
